<svg width="1200" height="1200" viewBox="0 0 1200 1200" fill="none" xmlns="http://www.w3.org/2000/svg">
<path d="M620.11 1080C783.12 1060.3 936.552 983.953 1047.53 852.878C1158.5 721.802 1207.72 558.791 1198.99 396.27C1035.98 415.967 882.55 492.315 771.574 623.391C660.599 754.467 611.377 917.477 620.11 1080Z" />
<path d="M620.11 1080C783.12 1060.3 936.552 983.953 1047.53 852.878C1158.5 721.802 1207.72 558.791 1198.99 396.27C1035.98 415.967 882.55 492.315 771.574 623.391C660.599 754.467 611.377 917.477 620.11 1080Z" />
<path d="M579.866 1080C588.6 917.478 539.378 754.468 428.403 623.392C317.427 492.316 163.995 415.968 0.985436 396.271C-7.74802 558.792 41.4737 721.803 152.449 852.879C263.425 983.954 416.857 1060.3 579.866 1080Z" />
<path d="M579.866 1080C588.6 917.478 539.378 754.468 428.403 623.392C317.427 492.316 163.995 415.968 0.985436 396.271C-7.74802 558.792 41.4737 721.803 152.449 852.879C263.425 983.954 416.857 1060.3 579.866 1080Z" />
<path fill-rule="evenodd" clip-rule="evenodd" d="M716.125 347.177C686.413 286.02 647.237 229.748 600.35 180C553.334 229.884 514.072 286.329 484.33 347.68C530.051 394.887 569.216 448.958 599.984 509.128C630.86 448.744 670.195 394.503 716.125 347.177Z" />
<path fill-rule="evenodd" clip-rule="evenodd" d="M716.125 347.177C686.413 286.02 647.237 229.748 600.35 180C553.334 229.884 514.072 286.329 484.33 347.68C530.051 394.887 569.216 448.958 599.984 509.128C630.86 448.744 670.195 394.503 716.125 347.177Z" />
<path fill-rule="evenodd" clip-rule="evenodd" d="M229.895 432.306C236.675 364.596 254.087 298.269 281.045 235.477C411.845 301.39 519.849 407.215 583.489 543.713C577.759 556.7 572.408 569.944 567.452 583.44C550.438 629.768 538.895 676.838 532.509 724.002C510.272 681.959 483.231 641.724 451.298 604.007C388.577 529.926 312.948 472.607 229.895 432.306Z" />
<path fill-rule="evenodd" clip-rule="evenodd" d="M229.895 432.306C236.675 364.596 254.087 298.269 281.045 235.477C411.845 301.39 519.849 407.215 583.489 543.713C577.759 556.7 572.408 569.944 567.452 583.44C550.438 629.768 538.895 676.838 532.509 724.002C510.272 681.959 483.231 641.724 451.298 604.007C388.577 529.926 312.948 472.607 229.895 432.306Z" />
<path fill-rule="evenodd" clip-rule="evenodd" d="M970.071 432.31C963.291 364.598 945.878 298.27 918.92 235.477C772.539 309.242 654.708 432.994 595.659 593.782C573.522 654.06 561.089 715.614 557.584 776.906C577.124 823.29 591.223 871.401 599.987 920.369C620.34 806.662 669.451 697.582 748.677 604.006C811.396 529.928 887.021 472.61 970.071 432.31Z" />
<path fill-rule="evenodd" clip-rule="evenodd" d="M970.071 432.31C963.291 364.598 945.878 298.27 918.92 235.477C772.539 309.242 654.708 432.994 595.659 593.782C573.522 654.06 561.089 715.614 557.584 776.906C577.124 823.29 591.223 871.401 599.987 920.369C620.34 806.662 669.451 697.582 748.677 604.006C811.396 529.928 887.021 472.61 970.071 432.31Z" />
</svg>
